<svg width="18" height="18" viewBox="0 0 18 18" fill="none" xmlns="http://www.w3.org/2000/svg">
<rect x="1.5" y="1.5" width="15" height="15" rx="7.5" fill="#F5F6FA"/>
<path fill-rule="evenodd" clip-rule="evenodd" d="M11.1213 12.182C11.4142 12.4749 11.8891 12.4749 12.182 12.182C12.4749 11.8891 12.4749 11.4142 12.182 11.1213L10.0607 8.99999L12.182 6.87868C12.4749 6.58578 12.4749 6.11091 12.182 5.81802C11.8891 5.52512 11.4142 5.52512 11.1213 5.81801L9.00002 7.93933L6.87869 5.818C6.5858 5.5251 6.11092 5.5251 5.81803 5.818C5.52514 6.11089 5.52514 6.58576 5.81803 6.87866L7.93936 8.99999L5.81803 11.1213C5.52514 11.4142 5.52513 11.8891 5.81803 12.182C6.11092 12.4749 6.5858 12.4749 6.87869 12.182L9.00002 10.0606L11.1213 12.182Z" fill="black"/>
</svg>
